# xmcd
#
# Track frame offsets:
#	150
#	16822
#	29195
#	46802
#	61582
#	74410
#	88455
#	106072
#	121107
#	132240
#	147877
#	162532
#
# Disc length: 2335 seconds
#
# Revision: 2
# Processed by: cddbd v1.5.2PL0 Copyright (c) Steve Scherf et al.
# Submitted via: audiograbber 1.83.01
#
DISCID=a4091d0c
DTITLE=Various Artist - Deutsches Country Festival
DYEAR=1992
DGENRE=Country
TTITLE0=Greyhounds - San Antonio Lady
TTITLE1=Linda Feller - Noch eine Nacht
TTITLE2=Gunter Gabriel - Dieselknecht
TTITLE3=Ralf Paulsen - Ich möcht' so gern nach Nashville Tennesee
TTITLE4=Truck Riders - Country Lady
TTITLE5=Mike Tauer - Liebeszeichen
TTITLE6=Tom Astor - Lucille
TTITLE7=Dagmar-The Lady Of Country - Ein Cowboy, der auch zärtlich ist
TTITLE8=Greyhounds - Stand Up
TTITLE9=Max Zwo - Im Cowboyhimmel
TTITLE10=Bruce Low - Einfach träumen
TTITLE11=Greyhounds - Country Fan
EXTD=
EXTT0=
EXTT1=
EXTT2=
EXTT3=
EXTT4=
EXTT5=
EXTT6=
EXTT7=
EXTT8=
EXTT9=
EXTT10=
EXTT11=
PLAYORDER=
